<svg xmlns="http://www.w3.org/2000/svg" xmlns:xlink="http://www.w3.org/1999/xlink" width="2048" zoomAndPan="magnify" viewBox="0 0 1536 1535.999932" height="2048" preserveAspectRatio="xMidYMid meet" version="1.2"><g id="289a71f266"><path style=" stroke:none;fill-rule:nonzero;fill:#aeff93;fill-opacity:1;" d="M 1014.3125 539.335938 C 1016.828125 540.414062 1019.359375 541.460938 1021.886719 542.507812 C 1070.261719 562.796875 1114.570312 593.039062 1152.898438 628.640625 C 1156.683594 632.113281 1160.570312 635.453125 1164.519531 638.738281 L 1166.160156 640.390625 L 1166.160156 642.859375 L 1168.386719 643.828125 C 1171.3125 645.445312 1172.828125 647.003906 1174.949219 649.566406 C 1178.398438 653.65625 1181.949219 657.609375 1185.59375 661.523438 C 1192.726562 669.367188 1199.238281 677.613281 1205.644531 686.054688 L 1207.691406 688.734375 C 1218.519531 702.996094 1228.5 717.609375 1237.726562 732.953125 L 1239.527344 735.925781 C 1287.597656 815.90625 1312.023438 907.515625 1323.480469 999.488281 L 1324.085938 1004.203125 L 1324.597656 1008.4375 L 1325.339844 1011.875 C 1328.195312 1015.425781 1328.195312 1015.425781 1332.742188 1016.8125 L 1335.292969 1017.996094 C 1354.765625 1026.316406 1377.238281 1027.179688 1398.066406 1029.152344 C 1460.945312 1035.136719 1460.945312 1035.136719 1482.832031 1050.242188 C 1489.832031 1055.902344 1495.90625 1062.574219 1499.5625 1070.878906 C 1504.871094 1085.273438 1505.726562 1099.75 1503.683594 1114.890625 C 1501.460938 1125.144531 1497.074219 1133.152344 1490.304688 1141.113281 C 1476.53125 1155.710938 1459.429688 1165.269531 1441.328125 1173.550781 L 1438.730469 1174.753906 C 1407.890625 1188.878906 1374.605469 1197.898438 1341.378906 1204.40625 L 1346.007812 1205.871094 C 1358.425781 1210.039062 1370.566406 1214.617188 1380.480469 1223.382812 C 1385.109375 1228.640625 1388.75 1233.148438 1391.125 1239.8125 C 1393.210938 1250.234375 1392.566406 1260.914062 1389.699219 1271.113281 C 1386.167969 1280.097656 1380.089844 1287.230469 1372.84375 1293.496094 C 1364.6875 1299.613281 1355.570312 1303.894531 1346.316406 1308.078125 L 1342.433594 1309.851562 C 1334.175781 1313.3125 1325.707031 1315.527344 1317.007812 1317.5625 L 1313.808594 1318.324219 C 1296.941406 1322.0625 1279.808594 1323.425781 1262.5625 1323.425781 L 1259.804688 1323.433594 C 1215.199219 1323.390625 1167.417969 1318.871094 1124.019531 1308.238281 C 1120.308594 1307.363281 1116.925781 1306.839844 1113.109375 1306.933594 C 1107.855469 1308.550781 1103.761719 1311.359375 1099.214844 1314.402344 C 1048.914062 1347 994.476562 1373.238281 938.359375 1394.140625 C 934.679688 1395.515625 931.015625 1396.917969 927.355469 1398.335938 C 885.660156 1414.265625 841.730469 1425.332031 797.976562 1433.882812 L 795.117188 1434.445312 C 789.246094 1435.589844 783.363281 1436.652344 777.464844 1437.664062 L 774.179688 1438.289062 C 764.105469 1439.835938 754.179688 1437.417969 744.300781 1435.503906 L 741.253906 1434.929688 C 633.03125 1414.378906 530.460938 1373.03125 436.65625 1315.476562 L 433.5 1313.550781 C 431.152344 1312.050781 429.019531 1310.453125 426.835938 1308.738281 L 423.320312 1306.84375 C 419.71875 1306.949219 416.914062 1307.316406 413.449219 1308.078125 C 411.242188 1308.496094 409.039062 1308.914062 406.835938 1309.332031 L 403.054688 1310.066406 C 385.875 1313.359375 368.664062 1315.621094 351.289062 1317.5625 L 347.886719 1317.945312 C 340.128906 1318.8125 332.371094 1319.628906 324.605469 1320.417969 L 321.167969 1320.773438 C 305.601562 1322.371094 290.199219 1323.347656 274.550781 1323.269531 L 271.585938 1323.265625 C 256.09375 1323.214844 241.09375 1322.347656 225.886719 1319.183594 L 223.121094 1318.644531 C 200.191406 1314.109375 177.503906 1306.007812 159.441406 1290.753906 C 151.644531 1283.632812 147.066406 1276.457031 143.722656 1266.40625 C 142.109375 1257.671875 142.167969 1247.589844 144.011719 1238.890625 C 146.699219 1231.53125 150.972656 1225.664062 156.785156 1220.449219 C 165.648438 1213.433594 176.164062 1210.433594 186.792969 1207.121094 C 191.050781 1206.113281 191.050781 1206.113281 192.570312 1204.40625 L 190.230469 1203.863281 C 140.753906 1192.339844 86.894531 1179.695312 48.015625 1144.851562 C 41.035156 1138.128906 36.296875 1131.171875 32.851562 1122.101562 C 29.1875 1108.746094 29.320312 1093.527344 31.78125 1079.960938 C 35.027344 1069.335938 40.835938 1060.855469 48.660156 1053.066406 C 61.25 1042.28125 77.554688 1037.628906 93.566406 1034.589844 C 106.871094 1032.179688 120.21875 1030.550781 133.679688 1029.277344 C 159.832031 1027.058594 159.832031 1027.058594 185.628906 1022.441406 L 188.53125 1021.765625 C 194.609375 1020.164062 199.695312 1017.582031 205.082031 1014.347656 C 207.378906 1013.109375 207.378906 1013.109375 209.847656 1013.109375 L 210.316406 1009.351562 C 220.027344 931.847656 236.695312 857.484375 269.074219 786.023438 L 270.355469 783.164062 C 296.742188 724.386719 336.695312 666.621094 385.824219 624.40625 C 388.019531 622.519531 390.203125 620.613281 392.371094 618.691406 C 410.871094 602.410156 430.710938 587.878906 451.699219 574.976562 L 454.148438 573.464844 C 493.796875 549.070312 535.785156 532.082031 580.03125 518.207031 L 584.324219 516.855469 C 634.078125 501.472656 686.417969 494.9375 738.207031 491.386719 C 741.96875 491.121094 745.722656 490.816406 749.476562 490.472656 C 835.867188 483.15625 935.3125 505.554688 1014.3125 539.335938 "/><path style=" stroke:none;fill-rule:nonzero;fill:#70d162;fill-opacity:1;" d="M 1014.3125 539.335938 C 1016.828125 540.414062 1019.359375 541.460938 1021.886719 542.507812 C 1070.261719 562.796875 1114.570312 593.039062 1152.898438 628.640625 C 1156.683594 632.113281 1160.570312 635.453125 1164.519531 638.738281 L 1166.160156 640.390625 L 1166.160156 642.859375 L 1168.386719 643.828125 C 1171.3125 645.445312 1172.828125 647.003906 1174.949219 649.566406 C 1178.398438 653.65625 1181.949219 657.609375 1185.59375 661.523438 C 1192.726562 669.367188 1199.238281 677.613281 1205.644531 686.054688 L 1207.691406 688.734375 C 1218.519531 702.996094 1228.5 717.609375 1237.726562 732.953125 L 1239.527344 735.925781 C 1283.535156 809.148438 1307.375 891.929688 1320.25 975.851562 L 1320.636719 978.359375 C 1322.34375 989.527344 1323.460938 1000.601562 1324.105469 1011.875 C 1318.253906 1014.800781 1309.582031 1013.597656 1303.109375 1013.308594 C 1299.125 1012.984375 1296.128906 1012.171875 1292.773438 1010.003906 C 1282.484375 1000.511719 1276.421875 985.777344 1269.808594 973.617188 C 1242.957031 923.875 1242.957031 923.875 1209.347656 878.585938 L 1206.667969 875.488281 C 1182.21875 847.828125 1154.265625 827.96875 1119.210938 815.882812 C 1101.730469 810.386719 1084.191406 806.835938 1065.863281 806.753906 L 1062.226562 806.730469 C 1059.699219 806.71875 1057.167969 806.710938 1054.636719 806.707031 C 1050.828125 806.695312 1047.023438 806.65625 1043.214844 806.617188 C 1021.757812 806.5 1001.859375 808.402344 982.554688 818.71875 C 962.25 830.96875 947.285156 847.972656 934.175781 867.476562 L 932.5625 869.871094 C 918.105469 891.609375 907.4375 915.871094 898.390625 940.292969 L 896.914062 944.273438 C 879.988281 990.300781 867.910156 1037.257812 857.1875 1085.0625 C 856.464844 1088.269531 855.726562 1091.46875 854.980469 1094.671875 C 852.777344 1104.234375 850.882812 1113.675781 849.761719 1123.441406 C 849.085938 1127.570312 848.164062 1131.515625 847.136719 1135.570312 L 846.117188 1139.613281 L 845.332031 1142.699219 C 825.082031 1142.726562 804.832031 1142.746094 784.582031 1142.761719 C 775.175781 1142.765625 765.773438 1142.777344 756.375 1142.789062 C 748.183594 1142.800781 739.992188 1142.808594 731.796875 1142.816406 C 727.457031 1142.816406 723.117188 1142.820312 718.777344 1142.828125 C 713.941406 1142.839844 709.101562 1142.839844 704.265625 1142.839844 L 699.871094 1142.851562 L 695.90625 1142.84375 L 692.433594 1142.847656 L 689.851562 1142.699219 L 688.621094 1141.464844 C 688.199219 1139.417969 687.824219 1137.363281 687.496094 1135.300781 L 686.820312 1131.265625 C 686.574219 1129.792969 686.328125 1128.324219 686.074219 1126.808594 C 682.71875 1107.390625 678.347656 1088.25 673.835938 1069.078125 C 672.601562 1063.820312 671.394531 1058.558594 670.195312 1053.296875 L 669.050781 1048.289062 C 668.34375 1045.214844 667.640625 1042.140625 666.945312 1039.0625 C 664.714844 1029.4375 661.984375 1020.058594 659.003906 1010.640625 C 658.195312 1007.867188 657.398438 1005.089844 656.613281 1002.308594 C 648.363281 973.144531 648.363281 973.144531 638.050781 944.660156 C 636.902344 941.785156 635.773438 938.902344 634.671875 936.007812 C 625.3125 911.734375 614.660156 887.671875 599.773438 866.242188 L 598.082031 863.785156 C 583.890625 843.421875 567.84375 826.671875 545.449219 815.605469 C 517.199219 802.414062 481.019531 805.390625 450.535156 807.84375 C 445.625 808.351562 440.769531 809.175781 435.96875 810.320312 L 433.171875 810.96875 C 415.238281 815.296875 398.792969 821.644531 382.601562 830.453125 L 378.683594 832.523438 C 365.851562 839.621094 353.804688 848.734375 343.726562 859.421875 C 341.828125 861.359375 339.828125 863.007812 337.714844 864.699219 C 331.664062 869.808594 327 876.078125 322.136719 882.289062 L 319.164062 885.996094 C 302.15625 907.53125 288.695312 931.46875 275.523438 955.46875 C 268.914062 967.507812 262.292969 979.539062 255.425781 991.433594 L 253.558594 994.75 C 249.75 1001.269531 245.816406 1006.441406 239.460938 1010.640625 C 233.398438 1013.515625 227.675781 1013.40625 221.105469 1013.261719 L 218.175781 1013.230469 C 215.808594 1013.199219 213.445312 1013.15625 211.082031 1013.109375 L 209.847656 1010.640625 C 210.160156 1007.273438 210.5625 1003.96875 211.042969 1000.625 L 211.472656 997.511719 C 211.953125 994.125 212.4375 990.734375 212.929688 987.347656 L 213.441406 983.824219 C 220.300781 936.554688 230.359375 890.574219 245.632812 845.261719 L 247.695312 838.996094 C 273.949219 760.476562 319.527344 684.386719 381.191406 628.4375 C 382.726562 627.085938 384.269531 625.742188 385.824219 624.410156 C 388.019531 622.519531 390.203125 620.613281 392.371094 618.691406 C 410.871094 602.410156 430.710938 587.878906 451.699219 574.976562 L 454.148438 573.464844 C 493.796875 549.070312 535.785156 532.082031 580.03125 518.207031 L 584.324219 516.855469 C 634.078125 501.472656 686.417969 494.9375 738.207031 491.386719 C 741.96875 491.121094 745.722656 490.816406 749.476562 490.472656 C 835.867188 483.15625 935.3125 505.554688 1014.3125 539.335938 M 188.871094 35.644531 C 210.804688 32.769531 237.585938 46.863281 257.324219 54.910156 C 276.285156 62.777344 294.925781 71.332031 313.5 80.074219 L 317.464844 81.933594 C 334.703125 90.007812 351.542969 98.589844 368.167969 107.855469 C 371.507812 109.695312 374.859375 111.515625 378.222656 113.308594 C 411.648438 131.222656 444.386719 151.21875 473.910156 175.105469 L 477.359375 177.839844 C 502.988281 198.414062 522.050781 221.339844 534.414062 252.179688 C 551.960938 298.300781 556.011719 350.070312 548.578125 398.738281 C 545.664062 416.382812 541.773438 433.527344 535.609375 450.328125 L 534.617188 453.039062 C 524.671875 479.660156 509.847656 503.445312 488.566406 522.492188 C 482.273438 527.617188 475.125 530.992188 467.742188 534.25 L 464.554688 535.765625 C 437.53125 547.207031 404.550781 546.117188 376.046875 542.660156 C 371.226562 541.992188 366.417969 541.246094 361.621094 540.421875 L 358.183594 539.839844 C 318.867188 532.878906 280.234375 517.96875 246.863281 495.992188 L 244.6875 494.558594 C 234.039062 487.46875 224.542969 479.496094 215.367188 470.597656 C 213.6875 468.984375 211.992188 467.386719 210.28125 465.808594 C 192.683594 449.066406 178.917969 427.28125 171.816406 404.015625 C 164.730469 377.878906 160.734375 351.335938 158.019531 324.441406 L 157.578125 320.164062 C 152.984375 273.550781 153.980469 225.4375 158.019531 178.808594 L 158.257812 176.011719 C 161.828125 133.808594 165.816406 89.207031 180.308594 49.144531 L 181.183594 46.714844 C 182.523438 43.242188 183.988281 40.515625 186.332031 37.617188 Z M 1350.015625 35.644531 C 1352.871094 37.421875 1352.871094 37.421875 1354.953125 40.582031 C 1358.933594 48.425781 1361.449219 56.449219 1363.589844 64.957031 L 1364.554688 68.742188 C 1374.730469 109.566406 1379.128906 151.640625 1381.925781 193.546875 C 1382.09375 195.976562 1382.277344 198.402344 1382.460938 200.832031 C 1383.550781 216.5 1383.5625 232.164062 1383.5625 247.863281 C 1383.566406 252.570312 1383.585938 257.28125 1383.613281 261.988281 C 1383.738281 318.066406 1381.96875 384.164062 1353.71875 434.28125 C 1345.601562 447.59375 1335.242188 459.21875 1324.105469 470.074219 L 1322.320312 472.070312 C 1295.097656 501.496094 1252.265625 520 1214.707031 531.679688 C 1173.433594 543.957031 1128.921875 549.421875 1086.671875 539.421875 C 1071.359375 535.226562 1056.726562 528.316406 1045.34375 517.136719 L 1042.761719 514.503906 L 1040.53125 512.488281 C 1019.390625 493.054688 1007.429688 464.042969 998.996094 437.285156 C 984.109375 387.804688 983.484375 333.535156 994.84375 283.273438 C 1001.929688 254.023438 1014.121094 225.050781 1034.828125 202.886719 C 1037.855469 199.761719 1040.921875 196.691406 1043.996094 193.621094 L 1046.152344 191.332031 C 1071.9375 164.292969 1107.058594 144.511719 1139.011719 125.738281 L 1142.132812 123.902344 C 1159.699219 113.613281 1177.640625 104.132812 1195.773438 94.886719 L 1198.523438 93.480469 C 1204.160156 90.605469 1209.832031 87.800781 1215.515625 85.011719 L 1219.03125 83.28125 C 1254.558594 65.78125 1291.046875 48.957031 1329.195312 37.960938 L 1331.738281 37.210938 C 1337.773438 35.582031 1343.796875 34.976562 1350.015625 35.644531 "/><path style=" stroke:none;fill-rule:nonzero;fill:#aeff93;fill-opacity:1;" d="M 266.609375 186.214844 C 280.160156 185.601562 294.015625 192.566406 306.09375 197.785156 L 308.351562 198.757812 C 400.355469 238.523438 400.355469 238.523438 426.558594 273.53125 C 430.085938 278.789062 433.269531 284.015625 435.660156 289.882812 L 436.917969 292.960938 C 443.878906 311.785156 445.019531 331.484375 444.382812 351.367188 C 444.3125 353.511719 444.285156 355.65625 444.269531 357.800781 C 444.039062 363.390625 442.882812 368.664062 441.375 374.035156 L 440.390625 377.5625 C 439.113281 381.996094 437.800781 386.417969 436.460938 390.832031 L 435.660156 393.554688 L 434.847656 396.15625 L 434.425781 398.492188 C 435.558594 401.296875 436.765625 403.792969 438.207031 406.4375 C 439.121094 408.195312 440.035156 409.953125 440.945312 411.714844 L 442.535156 414.773438 C 446.125 421.832031 449.511719 428.992188 452.933594 436.132812 C 457.746094 446.1875 462.648438 456.195312 467.640625 466.160156 C 472.015625 474.894531 476.296875 483.675781 480.558594 492.460938 C 481.882812 495.199219 483.210938 497.933594 484.542969 500.664062 L 487.09375 505.925781 L 488.289062 508.382812 C 489.863281 511.628906 491.277344 514.777344 492.421875 518.207031 C 481.765625 528.863281 466.644531 535.429688 452.269531 539.421875 C 436.34375 543.144531 421.160156 544.683594 404.8125 544.125 C 397.667969 530.105469 390.714844 516.03125 384.21875 501.699219 C 380.191406 492.820312 376.089844 484.011719 371.667969 475.324219 C 366.925781 465.980469 362.457031 456.507812 357.964844 447.042969 L 356.117188 443.167969 L 354.46875 439.691406 C 352.957031 436.546875 352.957031 436.546875 350.515625 433.046875 C 347.066406 432.042969 347.066406 432.042969 342.957031 431.429688 C 321.019531 427.0625 300.1875 417.257812 283.21875 402.582031 C 272.710938 392.703125 263.421875 381.75 258.765625 367.882812 C 256.949219 361.707031 255.449219 355.453125 254.269531 349.125 L 253.746094 346.375 C 250.503906 328.347656 250.203125 310.382812 250.179688 292.121094 L 250.167969 288.675781 C 250.117188 265.527344 252.109375 242.824219 255.964844 220 L 256.699219 215.347656 C 258.234375 206.117188 260.164062 197.207031 264.140625 188.683594 Z M 1272.277344 186.214844 C 1277.089844 191.164062 1278.269531 196.867188 1280.007812 203.421875 C 1281.476562 209.519531 1282.496094 215.65625 1283.460938 221.851562 L 1284.0625 225.46875 C 1287.558594 247.484375 1288.828125 269.464844 1288.78125 291.734375 L 1288.78125 295.457031 C 1288.722656 324.410156 1288.183594 355.644531 1273.820312 381.601562 C 1262.761719 398.597656 1246.917969 411.039062 1229.015625 420.164062 C 1217.878906 425.523438 1206.515625 429.476562 1194.386719 431.890625 C 1189.863281 432.644531 1189.863281 432.644531 1187.683594 434.523438 C 1185.328125 437.46875 1183.855469 440.539062 1182.238281 443.945312 L 1180.125 448.359375 L 1177.882812 453.105469 L 1175.550781 457.992188 C 1173.976562 461.285156 1172.410156 464.578125 1170.84375 467.875 C 1168.890625 471.984375 1166.925781 476.085938 1164.949219 480.183594 C 1158.546875 493.46875 1152.296875 506.8125 1146.265625 520.269531 C 1142.570312 528.4375 1138.46875 536.308594 1134.074219 544.125 C 1109.632812 544.960938 1086.679688 541.496094 1064.511719 530.703125 L 1062.066406 529.523438 C 1056.132812 526.507812 1051.34375 522.714844 1046.464844 518.207031 L 1048.503906 513.902344 L 1049.847656 511.0625 L 1052.839844 504.753906 C 1055.386719 499.386719 1057.917969 494.011719 1060.433594 488.628906 C 1064.671875 479.570312 1068.96875 470.597656 1073.765625 461.820312 C 1077.5625 454.875 1080.820312 447.804688 1083.921875 440.527344 C 1086.488281 434.535156 1089.265625 428.6875 1092.199219 422.867188 L 1093.441406 420.386719 C 1095.363281 416.574219 1097.339844 412.785156 1099.371094 409.03125 L 1101.453125 405.125 L 1103.308594 401.761719 C 1104.691406 398.503906 1104.691406 398.503906 1104.265625 394.914062 C 1103.304688 391.375 1101.976562 388.246094 1100.476562 384.910156 C 1092.808594 365.054688 1092.390625 339.785156 1095.492188 318.96875 C 1098.851562 299.519531 1105.570312 283.546875 1117.109375 267.515625 C 1140.089844 243.488281 1171.949219 227.40625 1201.195312 212.535156 C 1204.050781 211.082031 1206.894531 209.609375 1209.726562 208.121094 C 1257.769531 183.191406 1257.769531 183.191406 1272.277344 186.214844 "/><path style=" stroke:none;fill-rule:nonzero;fill:#70d162;fill-opacity:1;" d="M 691.085938 1171.082031 L 844.097656 1171.082031 C 839.3125 1176.667969 835.117188 1181.382812 829.753906 1186.203125 L 825.859375 1189.722656 L 823.867188 1191.511719 C 820.667969 1194.398438 817.5 1197.320312 814.328125 1200.242188 C 809.957031 1204.253906 805.5625 1208.242188 801.140625 1212.195312 C 794.949219 1217.746094 788.882812 1223.433594 782.835938 1229.140625 C 778.308594 1233.398438 773.640625 1237.496094 768.828125 1241.429688 C 758.511719 1236.667969 750.488281 1227.054688 742.285156 1219.359375 C 738.433594 1215.75 734.578125 1212.167969 730.574219 1208.726562 C 724.992188 1203.921875 719.65625 1198.855469 714.285156 1193.816406 C 710.449219 1190.207031 706.582031 1186.625 702.683594 1183.078125 L 700.613281 1181.195312 C 698.753906 1179.511719 696.894531 1177.832031 695.03125 1176.15625 C 692.320312 1173.550781 692.320312 1173.550781 691.085938 1171.082031 "/><path style=" stroke:none;fill-rule:nonzero;fill:#70d162;fill-opacity:1;" d="M 545.480469 979.785156 L 543.679688 981.6875 C 540.328125 985.339844 537.332031 988.699219 535.070312 993.132812 C 534.015625 999.113281 533.457031 1004.601562 534.375 1010.640625 C 536.597656 1016.410156 539.523438 1021.101562 544.296875 1025.082031 C 549.902344 1028.746094 554.519531 1030.25 561.214844 1030.695312 C 568.175781 1030.59375 573.695312 1028.214844 579.648438 1024.757812 C 583.890625 1020.285156 586.164062 1014.992188 588.667969 1009.40625 L 591.136719 1009.40625 C 593.269531 1016.859375 592.917969 1024.726562 591.601562 1032.316406 C 589.632812 1040.027344 585.332031 1045.847656 579.980469 1051.621094 C 574.773438 1056.59375 569.507812 1060.542969 562.679688 1062.945312 C 553.320312 1064.921875 542.558594 1064.992188 533.296875 1062.476562 C 526.570312 1059.710938 520.960938 1055.265625 515.867188 1050.132812 C 510.351562 1042.753906 506.582031 1035.164062 505.449219 1025.953125 C 505.167969 1016.882812 505.589844 1009.519531 509.695312 1001.308594 C 513.644531 994.308594 517.847656 989.207031 524.503906 984.722656 L 526.746094 983.160156 C 532.722656 979.363281 538.648438 977.507812 545.480469 979.785156 M 989.703125 978.550781 C 992.9375 978.121094 995.148438 978.019531 998.339844 978.550781 C 1005.964844 981.78125 1012.695312 985.761719 1018.085938 992.128906 L 1020.628906 994.984375 C 1025.171875 1001.289062 1028.8125 1008.195312 1029.613281 1015.992188 C 1029.984375 1023.109375 1029.976562 1029.410156 1027.566406 1036.1875 C 1022.910156 1045.160156 1017.597656 1052.617188 1009.074219 1058.148438 C 1001.328125 1062.636719 995.359375 1063.984375 986.386719 1064.019531 C 978.707031 1063.992188 971.839844 1063.824219 965.023438 1060.007812 C 956.894531 1054.664062 950.90625 1048.96875 946.515625 1040.261719 L 945.175781 1037.695312 C 942.0625 1031.148438 942.628906 1023.664062 942.53125 1016.570312 C 942.8125 1013.117188 943.503906 1011.109375 945.28125 1008.171875 L 946.328125 1010.613281 C 949.300781 1017.09375 952.132812 1022.175781 957.851562 1026.539062 C 963 1029.710938 968.273438 1030.523438 974.203125 1030.851562 C 979.195312 1030.699219 982.980469 1029.628906 987.332031 1027.175781 C 992.878906 1023.140625 997.054688 1018.152344 1000.117188 1012.03125 C 1001.109375 1006.503906 1001.640625 1001.414062 1000.808594 995.832031 C 998.234375 989.347656 994.269531 983.796875 989.703125 978.550781 "/></g></svg>