<svg xmlns="http://www.w3.org/2000/svg" xmlns:xlink="http://www.w3.org/1999/xlink" width="2048" zoomAndPan="magnify" viewBox="0 0 1536 1535.999932" height="2048" preserveAspectRatio="xMidYMid meet" version="1.2"><g id="f817457fca"><path style=" stroke:none;fill-rule:nonzero;fill:#009434;fill-opacity:1;" d="M 1031.210938 129.910156 C 1058.203125 144.777344 1083.929688 161.574219 1108.402344 180.296875 L 1110.097656 181.59375 C 1122.375 191 1133.960938 201.175781 1145.292969 211.6875 C 1146.792969 213.074219 1148.296875 214.457031 1149.804688 215.832031 C 1157.496094 222.875 1165.070312 229.960938 1171.863281 237.890625 C 1173.917969 240.222656 1176.03125 242.488281 1178.15625 244.75 C 1183.824219 250.789062 1189.226562 256.9375 1194.351562 263.445312 L 1195.800781 265.269531 C 1203.769531 275.320312 1211.375 285.570312 1218.640625 296.140625 L 1219.835938 297.863281 C 1265.167969 363.359375 1290.527344 439.902344 1299.269531 525.539062 C 1304.875 599.464844 1295.765625 674.605469 1249.609375 796.59375 C 1243.066406 810.175781 1235.875 823.269531 1227.984375 836.125 L 1226.234375 839.011719 C 1219.367188 850.335938 1212.273438 861.292969 1204.121094 871.734375 C 1202.703125 873.574219 1201.308594 875.429688 1199.933594 877.300781 C 1194.746094 884.328125 1189.402344 891.136719 1183.695312 897.753906 C 1181.375 900.46875 1179.128906 903.230469 1176.890625 906.015625 C 1173.910156 909.6875 1170.796875 913.078125 1167.367188 916.332031 C 1165.621094 918.101562 1164.007812 919.914062 1162.386719 921.796875 C 1158.753906 925.980469 1154.894531 929.902344 1150.96875 933.808594 L 1148.953125 935.835938 C 1145.164062 939.625 1141.242188 943.269531 1137.1875 946.769531 C 1134.921875 948.726562 1132.730469 950.757812 1130.53125 952.785156 C 1125.484375 957.382812 1120.265625 961.710938 1114.941406 965.980469 L 1111.769531 968.574219 C 1098.457031 979.410156 1084.5 989.339844 1070.097656 998.679688 L 1068.144531 999.957031 C 1055.433594 1008.246094 1042.308594 1015.707031 1028.992188 1022.96875 L 1026.476562 1024.351562 C 965.25 1057.863281 896.296875 1077.351562 827.199219 1085.5625 L 825.242188 1085.800781 C 785.371094 1090.558594 743.714844 1090.691406 703.882812 1085.5625 L 701.984375 1085.324219 C 672.816406 1081.617188 644.152344 1075.613281 616.066406 1066.878906 L 612.894531 1065.894531 C 580.058594 1055.582031 548.113281 1041.847656 518.453125 1024.351562 C 516.222656 1023.042969 513.988281 1021.746094 511.742188 1020.460938 C 502.984375 1015.417969 494.523438 1010.023438 486.207031 1004.285156 L 484.265625 1002.949219 C 471.644531 994.238281 459.644531 984.941406 447.992188 974.96875 C 445.300781 972.675781 442.550781 970.464844 439.789062 968.257812 C 435.464844 964.746094 431.558594 960.941406 427.667969 956.957031 C 425.746094 955.039062 423.753906 953.203125 421.6875 951.445312 C 415.632812 946.242188 410.125 940.542969 404.933594 934.484375 C 403.011719 932.289062 401.03125 930.15625 399.039062 928.023438 C 393.585938 922.179688 388.402344 916.203125 383.445312 909.929688 L 382.023438 908.144531 C 364.207031 885.78125 348.667969 862.089844 334.863281 837.058594 L 333.476562 834.550781 C 307.066406 786.367188 290.429688 732.667969 283.480469 678.242188 L 283.054688 674.976562 C 273.046875 595.195312 284.613281 508.332031 315.429688 434.070312 C 330.378906 398.851562 349.058594 366.058594 373.167969 336.3125 L 375.277344 333.65625 C 388.597656 317.039062 403.835938 300.628906 420.8125 287.734375 C 422.371094 286.492188 423.929688 285.246094 425.484375 283.996094 L 427.351562 284.929688 L 425.53125 286.621094 C 391.070312 319.707031 370.609375 367.964844 357.351562 412.894531 C 346.875 449.429688 341 487.125 338.601562 525.027344 L 338.4375 527.464844 C 334.140625 593.433594 344.714844 655.933594 374.011719 715.570312 C 386.394531 740.234375 401.878906 762.859375 419.480469 784.058594 C 420.648438 785.484375 421.808594 786.921875 422.953125 788.367188 C 431.582031 799.210938 441.351562 809.085938 451.117188 818.898438 L 452.921875 820.71875 C 457.011719 824.796875 461.277344 828.621094 465.65625 832.386719 C 466.667969 833.273438 467.679688 834.164062 468.6875 835.050781 C 477.042969 842.339844 485.71875 849.132812 494.617188 855.742188 L 496.707031 857.296875 C 561.042969 904.878906 637.410156 935.621094 716.960938 944.726562 C 728.15625 945.972656 739.328125 947.109375 750.59375 947.296875 L 753.515625 947.355469 C 824.074219 948.566406 894.421875 932.65625 956.320312 898.324219 C 981.144531 884.273438 1004.570312 867.851562 1025.648438 848.582031 C 1026.976562 847.375 1028.316406 846.183594 1029.675781 845.011719 C 1034.949219 840.476562 1039.902344 835.671875 1044.816406 830.753906 L 1047.332031 828.234375 C 1052.09375 823.429688 1056.628906 818.617188 1060.777344 813.269531 C 1062.515625 811.042969 1064.332031 808.90625 1066.1875 806.777344 C 1086.019531 783.894531 1101.800781 757.714844 1114.980469 730.527344 C 1115.867188 728.714844 1116.761719 726.910156 1117.671875 725.113281 C 1144.800781 670.296875 1155.328125 605.917969 1151.828125 545.21875 C 1149.8125 514.660156 1143.742188 484.796875 1133.625 455.894531 L 1132.746094 453.363281 C 1120.800781 419.597656 1103.4375 387.847656 1081.308594 359.667969 L 1079.5 357.347656 C 1064.351562 338.167969 1047.777344 318.683594 1028.484375 303.574219 C 1026.152344 301.71875 1023.992188 299.75 1021.8125 297.71875 C 973.570312 253.953125 907.9375 225.464844 844.90625 211.542969 C 822.683594 206.847656 799.90625 203.554688 777.171875 203.464844 L 773.875 203.445312 C 770.378906 203.429688 766.878906 203.421875 763.382812 203.421875 L 759.757812 203.417969 C 741.890625 203.433594 724.390625 203.859375 706.6875 206.457031 L 703.25 206.941406 C 634.207031 216.917969 569.449219 243.335938 514.390625 286.289062 C 501.097656 296.898438 487.734375 308.242188 476.867188 321.367188 C 473.414062 319.894531 471.027344 317.769531 468.285156 315.234375 L 466.847656 313.910156 C 461.6875 309.089844 456.71875 304.074219 451.773438 299.042969 C 448.738281 295.96875 445.683594 292.984375 442.402344 290.171875 C 436.898438 285.433594 431.902344 280.179688 426.8125 275.011719 C 423.34375 271.511719 419.886719 268.054688 416.140625 264.84375 C 410.667969 260.152344 405.710938 254.921875 400.652344 249.789062 C 396.546875 245.644531 392.394531 241.65625 387.964844 237.859375 C 385.246094 235.472656 382.710938 232.917969 380.175781 230.339844 L 378.65625 228.804688 C 377.449219 227.585938 376.242188 226.363281 375.035156 225.140625 C 378.714844 220.742188 382.582031 216.515625 386.648438 212.472656 L 388.328125 210.785156 C 389.496094 209.621094 390.660156 208.453125 391.828125 207.292969 C 393.59375 205.527344 395.359375 203.765625 397.117188 201.996094 C 402.675781 196.433594 408.246094 190.960938 414.273438 185.902344 C 415.308594 185.007812 416.339844 184.109375 417.371094 183.207031 C 440.488281 163.210938 465.257812 145.042969 491.8125 129.851562 L 493.800781 128.714844 C 502.921875 123.519531 512.144531 118.589844 521.585938 114.007812 C 523.660156 112.988281 525.726562 111.960938 527.789062 110.921875 C 588.402344 80.863281 656.289062 66.097656 723.5 61.652344 L 725.863281 61.488281 C 804.617188 56.238281 884.175781 68.925781 1031.210938 129.910156 "/><path style=" stroke:none;fill-rule:nonzero;fill:#009434;fill-opacity:1;" d="M 807.582031 341.917969 L 810.441406 342.4375 C 856.425781 350.953125 899.277344 370.988281 935.105469 401.066406 C 947.824219 411.984375 960.050781 423.921875 969.921875 437.507812 C 971.132812 439.152344 972.359375 440.785156 973.609375 442.402344 C 994.113281 469.414062 1008.332031 500.050781 1015.679688 533.144531 L 1016.242188 535.660156 C 1019.125 549.28125 1019.9375 562.507812 1019.84375 576.386719 C 1019.824219 579.050781 1019.824219 581.714844 1019.824219 584.378906 C 1019.808594 592.65625 1019.769531 600.878906 1018.71875 609.109375 C 996.257812 608.507812 973.863281 606.898438 951.453125 605.371094 L 951.652344 602.746094 C 953.910156 572.121094 949.597656 542.164062 936.257812 514.300781 C 935.414062 512.578125 934.5625 510.859375 933.703125 509.144531 L 932.863281 507.433594 C 919.839844 480.945312 899.085938 457.664062 874.847656 440.945312 C 846.621094 422.105469 813.421875 410.503906 779.554688 408.25 C 757.179688 407.347656 735.574219 408.988281 714.160156 415.722656 L 712.015625 416.394531 C 693.980469 422.191406 676.679688 431.007812 661.84375 442.816406 L 660.335938 444.007812 C 647.453125 454.277344 636.019531 465.910156 626.34375 479.25 L 625.175781 480.839844 C 607.382812 505.421875 595.425781 535.0625 592.164062 565.316406 C 590.675781 583.324219 590.964844 601.65625 594.578125 619.382812 L 595.050781 621.707031 C 601.417969 651.949219 615.566406 679.226562 635.945312 702.359375 C 660.078125 729.253906 691.132812 747.738281 725.222656 759.199219 C 759.421875 770.222656 795.800781 772.964844 831.070312 765.710938 C 858.875 759.582031 885.445312 747.65625 906.667969 728.398438 C 908.207031 726.9375 909.746094 725.480469 911.28125 724.015625 C 912.460938 723 913.648438 721.988281 914.84375 720.980469 C 924.167969 712.839844 932.636719 703.886719 940.242188 694.121094 C 941.050781 693.125 941.863281 692.132812 942.675781 691.136719 C 962.121094 667.1875 974.449219 641.269531 980.414062 610.976562 L 981.347656 610.976562 C 982.855469 639.550781 974.375 667.976562 961.847656 693.363281 C 960.589844 695.8125 959.308594 698.246094 957.992188 700.660156 L 956.949219 702.589844 C 951.457031 712.621094 945.09375 721.734375 937.933594 730.644531 C 936.691406 732.199219 935.457031 733.761719 934.234375 735.332031 C 921.796875 750.726562 906.925781 765.871094 890.726562 777.269531 L 887.308594 779.757812 C 854.734375 803.125 817.363281 816.527344 777.6875 821.175781 L 774.578125 821.550781 C 735.890625 825.328125 695.355469 818.425781 659.972656 802.492188 C 654.90625 800.160156 649.945312 797.648438 645.027344 795.019531 L 641.753906 793.28125 C 616.308594 779.269531 592.734375 759.164062 574.960938 736.164062 L 572.445312 733.019531 C 546.164062 699.640625 529.542969 659.28125 523.285156 617.398438 C 522.109375 609.046875 520.992188 600.730469 520.773438 592.292969 L 520.71875 590.203125 C 519.703125 548.109375 529.269531 506.640625 549.316406 469.535156 C 558.820312 452.480469 570.457031 436.878906 583.367188 422.261719 L 584.679688 420.773438 C 595.839844 408.164062 608.171875 396.828125 621.671875 386.761719 L 623.210938 385.597656 C 651.246094 364.472656 683.5625 349.96875 717.894531 342.851562 L 720.773438 342.253906 C 748.527344 336.765625 779.789062 336.617188 807.582031 341.917969 M 759.226562 1208.808594 C 784.355469 1208.035156 808.640625 1211.855469 831.023438 1223.765625 C 840.492188 1229.054688 848.398438 1235.96875 856.160156 1243.445312 L 857.984375 1245.09375 C 872.257812 1258.332031 881.152344 1277.535156 886.992188 1295.761719 C 888.886719 1302.230469 890.375 1308.769531 891.664062 1315.382812 L 892.359375 1318.917969 C 896.960938 1348.082031 893.328125 1379.425781 882.855469 1406.945312 C 875.234375 1425.800781 862.863281 1443.234375 846.929688 1455.988281 C 828.445312 1470.007812 807.085938 1478.34375 784.097656 1481.261719 C 758.804688 1483.917969 733.039062 1480.863281 709.691406 1470.632812 C 697.113281 1464.835938 686.617188 1456.785156 676.789062 1447.109375 L 674.375 1444.761719 C 659.46875 1429.40625 651.046875 1409.078125 645.601562 1388.691406 C 642.789062 1377.378906 641.1875 1365.746094 641.066406 1354.089844 L 641.039062 1351.859375 C 640.878906 1335.332031 641.113281 1319.394531 645.027344 1303.238281 L 645.542969 1301.046875 C 650.957031 1278.742188 662.183594 1259.691406 677.808594 1243 C 690.78125 1229.574219 707.636719 1220.128906 725.375 1214.574219 C 736.453125 1211.433594 747.714844 1209.207031 759.226562 1208.808594 M 742.828125 1279.003906 C 735.8125 1284.335938 731 1291.929688 727.320312 1299.855469 C 718.828125 1320.34375 718.070312 1343.480469 720.875 1365.246094 C 722.785156 1378.441406 726.230469 1391.078125 733.777344 1402.265625 C 738.453125 1408.011719 743.378906 1412.285156 750.109375 1415.402344 C 758.34375 1418.464844 766.214844 1418.921875 774.882812 1418.148438 C 781.140625 1417.039062 786.449219 1415.152344 791.582031 1411.375 C 792.894531 1410.238281 794.179688 1409.070312 795.4375 1407.871094 L 797.175781 1406.246094 C 804.675781 1398.492188 808.605469 1388.128906 811.484375 1377.917969 C 813.921875 1367.136719 814.46875 1356.445312 814.414062 1345.453125 L 814.410156 1343.335938 C 814.367188 1333.148438 814.027344 1323.394531 811.320312 1313.515625 L 810.847656 1311.722656 C 807.886719 1300.71875 802.898438 1291.046875 795.085938 1282.683594 C 789.246094 1277.195312 782.617188 1274.292969 774.882812 1272.40625 C 763.339844 1271.367188 752.800781 1272.691406 742.828125 1279.007812 M 307.773438 955.707031 C 310.574219 956.640625 310.574219 956.640625 311.917969 957.972656 L 313.375 959.734375 C 316.257812 963.136719 319.226562 966.445312 322.253906 969.71875 C 325.617188 973.371094 328.925781 977.0625 332.179688 980.8125 C 334.4375 983.375 336.753906 985.890625 339.066406 988.402344 C 342.429688 992.054688 345.742188 995.746094 348.996094 999.496094 C 351.253906 1002.058594 353.570312 1004.574219 355.882812 1007.085938 C 359.246094 1010.742188 362.558594 1014.429688 365.808594 1018.183594 C 368.070312 1020.746094 370.386719 1023.257812 372.699219 1025.773438 C 376.0625 1029.425781 379.375 1033.113281 382.625 1036.867188 C 384.886719 1039.429688 387.203125 1041.941406 389.515625 1044.457031 C 392.878906 1048.109375 396.191406 1051.800781 399.441406 1055.550781 C 402.144531 1058.613281 404.921875 1061.613281 407.691406 1064.617188 C 410.0625 1067.183594 412.390625 1069.789062 414.683594 1072.425781 C 417.589844 1075.78125 420.597656 1079.039062 423.617188 1082.292969 C 427.164062 1086.121094 430.664062 1089.972656 434.078125 1093.917969 C 437.691406 1098.042969 441.40625 1102.070312 445.101562 1106.117188 C 443.804688 1109.046875 442.304688 1110.996094 440.011719 1113.226562 L 438.078125 1115.128906 L 436.050781 1117.09375 C 432.269531 1120.78125 428.527344 1124.453125 425.082031 1128.464844 C 421.253906 1132.914062 417.101562 1137.023438 412.929688 1141.148438 L 410.589844 1143.476562 C 408.707031 1145.351562 406.820312 1147.222656 404.929688 1149.089844 C 400.980469 1145.191406 397.164062 1141.171875 393.371094 1137.121094 L 391.574219 1135.214844 C 388.066406 1131.464844 384.628906 1127.652344 381.261719 1123.773438 C 378.929688 1121.109375 376.515625 1118.515625 374.101562 1115.925781 C 370.5625 1112.113281 367.078125 1108.265625 363.675781 1104.332031 C 361.425781 1101.777344 359.125 1099.277344 356.820312 1096.773438 C 353.996094 1093.710938 351.191406 1090.640625 348.46875 1087.488281 C 345.085938 1083.585938 341.570312 1079.8125 338.058594 1076.027344 C 334.898438 1072.613281 331.800781 1069.144531 328.761719 1065.621094 C 326.835938 1063.453125 324.800781 1061.425781 322.71875 1059.40625 C 318.699219 1063.34375 314.707031 1067.273438 311.042969 1071.550781 C 307.378906 1075.828125 303.382812 1079.753906 299.363281 1083.695312 C 302.460938 1088.765625 306.285156 1092.855469 310.398438 1097.125 C 314.726562 1101.644531 318.980469 1106.191406 323.078125 1110.925781 C 325.25 1113.414062 327.484375 1115.835938 329.726562 1118.261719 C 333.089844 1121.910156 336.398438 1125.605469 339.652344 1129.355469 C 341.914062 1131.917969 344.226562 1134.429688 346.542969 1136.945312 C 349.917969 1140.605469 353.238281 1144.3125 356.503906 1148.070312 C 360.132812 1152.199219 363.855469 1156.242188 367.5625 1160.300781 C 363.035156 1166.949219 357.464844 1172.453125 351.738281 1178.050781 C 346.390625 1183.296875 341.089844 1188.53125 336.21875 1194.230469 C 334.476562 1196.25 332.621094 1198.136719 330.71875 1200.003906 L 328.792969 1201.902344 L 327.390625 1203.273438 L 324.167969 1200.050781 C 323.175781 1199.0625 322.183594 1198.078125 321.183594 1197.101562 C 317.800781 1193.769531 314.621094 1190.335938 311.523438 1186.742188 C 309.222656 1184.117188 306.867188 1181.550781 304.5 1178.984375 C 301.136719 1175.332031 297.828125 1171.644531 294.574219 1167.890625 C 292.316406 1165.328125 290 1162.816406 287.6875 1160.300781 C 284.324219 1156.648438 281.011719 1152.957031 277.757812 1149.207031 C 275.0625 1146.152344 272.296875 1143.160156 269.527344 1140.167969 C 266.421875 1136.796875 263.425781 1133.335938 260.535156 1129.777344 L 259.191406 1128.535156 L 256.390625 1128.535156 C 254.367188 1130.328125 252.421875 1132.195312 250.550781 1134.140625 L 248.898438 1135.824219 C 245.511719 1139.296875 242.246094 1142.847656 239.105469 1146.546875 C 236.898438 1149.082031 234.507812 1151.414062 232.097656 1153.761719 C 233.304688 1156.390625 234.585938 1158.371094 236.578125 1160.460938 L 238.117188 1162.097656 L 239.746094 1163.804688 L 243.082031 1167.347656 L 244.691406 1169.054688 C 246.308594 1170.792969 247.894531 1172.566406 249.441406 1174.371094 C 252.304688 1177.695312 255.277344 1180.910156 258.257812 1184.125 C 261.792969 1187.9375 265.28125 1191.78125 268.683594 1195.71875 C 270.933594 1198.269531 273.234375 1200.773438 275.539062 1203.273438 C 278.902344 1206.929688 282.214844 1210.617188 285.46875 1214.367188 C 287.726562 1216.933594 290.042969 1219.445312 292.355469 1221.960938 C 295.714844 1225.605469 299.027344 1229.285156 302.261719 1233.039062 C 303.710938 1234.667969 305.183594 1236.273438 306.683594 1237.855469 L 308.101562 1239.367188 C 309.03125 1240.355469 309.964844 1241.339844 310.90625 1242.316406 C 312.628906 1244.148438 314.140625 1245.945312 315.371094 1248.148438 L 315.246094 1249.988281 C 313.816406 1251.742188 312.257812 1253.375 310.574219 1254.890625 C 307.492188 1257.789062 304.574219 1260.664062 301.816406 1263.867188 C 297.804688 1268.519531 293.433594 1272.78125 289.050781 1277.078125 C 285.265625 1280.820312 281.734375 1284.644531 278.382812 1288.785156 L 276.941406 1290.15625 L 274.140625 1290.15625 C 272.722656 1288.992188 272.722656 1288.992188 271.234375 1287.355469 L 269.574219 1285.554688 L 267.832031 1283.617188 L 266.039062 1281.65625 C 262.695312 1278.003906 259.40625 1274.304688 256.171875 1270.558594 C 253.953125 1268.023438 251.667969 1265.546875 249.382812 1263.066406 C 246.019531 1259.414062 242.707031 1255.722656 239.457031 1251.972656 C 237.195312 1249.410156 234.882812 1246.894531 232.566406 1244.382812 C 229.203125 1240.726562 225.890625 1237.039062 222.640625 1233.285156 C 220.378906 1230.722656 218.066406 1228.210938 215.75 1225.695312 C 212.386719 1222.042969 209.078125 1218.355469 205.824219 1214.601562 C 203.5625 1212.039062 201.25 1209.527344 198.933594 1207.011719 C 195.570312 1203.359375 192.261719 1199.671875 189.007812 1195.917969 C 186.746094 1193.355469 184.433594 1190.839844 182.117188 1188.328125 C 179.277344 1185.246094 176.453125 1182.152344 173.710938 1178.984375 C 170.570312 1175.363281 167.328125 1171.832031 164.082031 1168.304688 C 159.9375 1163.796875 155.84375 1159.25 151.757812 1154.695312 L 147.492188 1149.964844 L 145.425781 1147.648438 C 144.011719 1146.089844 142.578125 1144.550781 141.125 1143.027344 L 139.027344 1140.800781 L 137.121094 1138.820312 L 135.875 1136.945312 C 135.992188 1135.246094 135.992188 1135.246094 136.808594 1133.207031 C 138.699219 1131.015625 138.699219 1131.015625 141.164062 1128.609375 L 142.496094 1127.296875 C 143.902344 1125.914062 145.316406 1124.539062 146.734375 1123.164062 C 148.578125 1121.363281 150.421875 1119.558594 152.257812 1117.75 L 153.621094 1116.414062 C 156.671875 1113.394531 159.511719 1110.261719 162.292969 1107 C 166.125 1102.664062 170.359375 1098.691406 174.484375 1094.636719 C 178.359375 1090.800781 182.046875 1086.890625 185.601562 1082.757812 C 189.273438 1078.625 193.292969 1074.820312 197.238281 1070.949219 C 200.398438 1067.820312 203.476562 1064.675781 206.378906 1061.300781 C 210.722656 1056.253906 215.515625 1051.65625 220.261719 1046.988281 C 224.136719 1043.152344 227.824219 1039.246094 231.378906 1035.109375 C 235.046875 1030.976562 239.070312 1027.171875 243.015625 1023.300781 C 246.175781 1020.171875 249.253906 1017.03125 252.15625 1013.65625 C 256.5 1008.605469 261.292969 1004.011719 266.039062 999.34375 C 269.914062 995.507812 273.601562 991.597656 277.152344 987.464844 C 280.824219 983.332031 284.847656 979.527344 288.792969 975.65625 C 292.636719 971.855469 296.296875 967.964844 299.820312 963.867188 C 301.445312 962 303.144531 960.238281 304.910156 958.507812 L 306.570312 956.875 Z M 1237.324219 949.164062 C 1240.519531 950.675781 1242.605469 952.355469 1245.09375 954.886719 L 1247.125 956.9375 C 1248.96875 958.914062 1250.777344 960.921875 1252.546875 962.96875 C 1256.085938 967.035156 1259.769531 970.949219 1263.484375 974.855469 C 1268.277344 979.894531 1272.960938 985.003906 1277.496094 990.273438 C 1276.046875 993.300781 1274.464844 995.496094 1272.183594 997.980469 L 1269.90625 1000.464844 C 1265.570312 1005.132812 1261.214844 1009.78125 1256.847656 1014.421875 C 1253.429688 1018.0625 1250.015625 1021.710938 1246.609375 1025.363281 L 1241.757812 1030.566406 L 1236.796875 1035.875 C 1231.226562 1041.832031 1225.679688 1047.804688 1220.15625 1053.800781 C 1217.527344 1056.65625 1214.882812 1059.496094 1212.222656 1062.320312 L 1210.339844 1064.320312 C 1209.136719 1065.597656 1207.933594 1066.871094 1206.730469 1068.144531 C 1203.121094 1071.988281 1199.617188 1075.925781 1196.21875 1079.957031 C 1199.800781 1085.03125 1203.683594 1089.410156 1208.140625 1093.742188 C 1210.6875 1096.292969 1212.992188 1099 1215.273438 1101.792969 C 1216.894531 1103.4375 1218.398438 1104.269531 1220.507812 1105.179688 L 1222.503906 1103.019531 C 1227.734375 1097.335938 1232.988281 1091.675781 1238.261719 1086.03125 C 1242.324219 1081.683594 1246.375 1077.328125 1250.40625 1072.949219 C 1254.4375 1068.574219 1258.488281 1064.21875 1262.550781 1059.871094 C 1271.355469 1050.449219 1280.113281 1040.992188 1288.707031 1031.378906 C 1291.511719 1032.3125 1291.511719 1032.3125 1292.984375 1033.808594 L 1294.546875 1035.699219 C 1296.71875 1038.261719 1298.917969 1040.707031 1301.320312 1043.054688 C 1303.59375 1045.289062 1305.722656 1047.585938 1307.800781 1050.003906 C 1310.636719 1053.296875 1313.652344 1056.34375 1316.75 1059.390625 C 1319.1875 1061.863281 1321.445312 1064.46875 1323.699219 1067.113281 C 1325.21875 1068.894531 1325.21875 1068.894531 1327.476562 1070.847656 L 1328.878906 1072.484375 C 1328.800781 1074.148438 1328.800781 1074.148438 1327.945312 1076.21875 C 1325.835938 1078.570312 1325.835938 1078.570312 1323.15625 1081.125 C 1319.546875 1084.59375 1316.105469 1088.226562 1312.839844 1092.019531 C 1309.960938 1095.300781 1306.949219 1098.453125 1303.949219 1101.621094 C 1299.425781 1106.40625 1294.917969 1111.195312 1290.460938 1116.042969 C 1287.023438 1119.777344 1283.570312 1123.503906 1280.105469 1127.214844 C 1278.996094 1128.398438 1277.894531 1129.582031 1276.789062 1130.769531 C 1274.074219 1133.699219 1271.320312 1136.601562 1268.539062 1139.46875 L 1266.941406 1141.128906 C 1265.945312 1142.171875 1264.9375 1143.203125 1263.921875 1144.222656 C 1262.414062 1145.75 1262.414062 1145.75 1260.679688 1148.15625 L 1260.613281 1150.117188 C 1261.929688 1152.449219 1263.519531 1154.027344 1265.46875 1155.863281 C 1268.242188 1158.539062 1270.902344 1161.226562 1273.410156 1164.15625 C 1276.472656 1167.722656 1279.742188 1171.027344 1283.101562 1174.3125 C 1284.039062 1175.246094 1284.972656 1176.179688 1285.90625 1177.117188 C 1287.484375 1175.5625 1289.0625 1174.007812 1290.636719 1172.445312 L 1291.953125 1171.148438 C 1295.132812 1167.992188 1298.089844 1164.6875 1301.023438 1161.300781 C 1303.863281 1158.070312 1306.828125 1154.957031 1309.785156 1151.835938 L 1313.746094 1147.640625 L 1315.738281 1145.535156 C 1319.191406 1141.867188 1322.636719 1138.1875 1326.070312 1134.5 C 1329.945312 1130.339844 1333.800781 1126.164062 1337.652344 1121.980469 C 1341.996094 1117.285156 1346.363281 1112.605469 1350.753906 1107.953125 C 1354.089844 1104.410156 1357.394531 1100.839844 1360.667969 1097.238281 C 1361.589844 1096.230469 1362.503906 1095.21875 1363.417969 1094.203125 C 1366.335938 1090.996094 1369.417969 1088.269531 1372.789062 1085.5625 C 1373.746094 1086.492188 1374.699219 1087.429688 1375.648438 1088.367188 L 1377.257812 1089.941406 C 1379.027344 1091.785156 1380.707031 1093.667969 1382.378906 1095.59375 C 1385.835938 1099.570312 1389.425781 1103.40625 1393.050781 1107.226562 C 1399.425781 1113.972656 1405.75 1120.765625 1412.027344 1127.601562 C 1404.347656 1136.734375 1396.128906 1145.386719 1387.984375 1154.097656 C 1384.460938 1157.867188 1380.953125 1161.648438 1377.460938 1165.4375 C 1373.425781 1169.8125 1369.378906 1174.171875 1365.316406 1178.519531 C 1359.375 1184.878906 1353.457031 1191.265625 1347.5625 1197.667969 C 1341.117188 1204.671875 1334.640625 1211.652344 1328.144531 1218.609375 C 1324.636719 1222.359375 1321.148438 1226.125 1317.667969 1229.902344 C 1313.636719 1234.273438 1309.589844 1238.632812 1305.523438 1242.980469 C 1300.507812 1248.347656 1295.511719 1253.734375 1290.53125 1259.140625 C 1288.621094 1261.214844 1286.703125 1263.289062 1284.78125 1265.355469 C 1280.078125 1270.429688 1275.402344 1275.507812 1270.957031 1280.816406 C 1268.023438 1279.527344 1266.152344 1278.0625 1263.980469 1275.71875 L 1262.148438 1273.753906 L 1260.214844 1271.648438 L 1258.195312 1269.476562 C 1256.21875 1267.34375 1254.242188 1265.207031 1252.273438 1263.066406 C 1251.269531 1261.980469 1250.265625 1260.890625 1249.257812 1259.808594 C 1247.457031 1257.855469 1245.65625 1255.902344 1243.859375 1253.949219 C 1240.761719 1250.589844 1237.644531 1247.25 1234.523438 1243.914062 C 1230.476562 1239.589844 1226.449219 1235.25 1222.4375 1230.894531 C 1218.238281 1226.335938 1214.007812 1221.804688 1209.765625 1217.289062 C 1205.066406 1212.285156 1200.390625 1207.261719 1195.742188 1202.210938 C 1192.179688 1198.351562 1188.601562 1194.5 1185.007812 1190.664062 C 1180.488281 1185.824219 1175.984375 1180.972656 1171.5 1176.101562 C 1167.921875 1172.222656 1164.324219 1168.359375 1160.71875 1164.503906 C 1156.65625 1160.160156 1152.605469 1155.800781 1148.574219 1151.425781 C 1142.378906 1144.699219 1136.132812 1138.019531 1129.890625 1131.339844 C 1105.738281 1105.503906 1105.738281 1105.503906 1099.996094 1098.640625 C 1101.511719 1094.949219 1104.0625 1092.328125 1106.769531 1089.476562 L 1108.261719 1087.878906 C 1109.316406 1086.753906 1110.375 1085.625 1111.433594 1084.503906 C 1113.621094 1082.183594 1115.792969 1079.851562 1117.964844 1077.519531 C 1119.070312 1076.335938 1120.175781 1075.152344 1121.28125 1073.96875 C 1124.789062 1070.214844 1128.28125 1066.449219 1131.757812 1062.675781 C 1138.507812 1055.347656 1145.3125 1048.074219 1152.117188 1040.796875 C 1158.265625 1034.226562 1164.390625 1027.636719 1170.492188 1021.019531 C 1174.625 1016.539062 1178.78125 1012.085938 1182.945312 1007.636719 C 1186.449219 1003.882812 1189.9375 1000.121094 1193.417969 996.34375 C 1198.003906 991.371094 1202.609375 986.414062 1207.234375 981.476562 C 1210.71875 977.746094 1214.191406 974 1217.648438 970.242188 C 1224.160156 963.171875 1230.742188 956.167969 1237.324219 949.164062 M 1084.78125 1145.375 C 1102.117188 1154.605469 1115.613281 1169.898438 1125.960938 1186.3125 C 1128.15625 1190.101562 1128.15625 1190.101562 1128.957031 1192.0625 L 1128.957031 1194.867188 L 1127.546875 1195.527344 C 1112.996094 1202.382812 1098.605469 1209.539062 1084.242188 1216.773438 L 1081.976562 1217.914062 C 1080.578125 1218.617188 1079.179688 1219.320312 1077.785156 1220.027344 C 1075.851562 1220.996094 1073.914062 1221.949219 1071.96875 1222.894531 L 1069.742188 1224 L 1067.507812 1225.0625 L 1065.488281 1226.042969 C 1063.558594 1226.628906 1063.558594 1226.628906 1061.527344 1226.367188 L 1059.824219 1225.695312 C 1058.496094 1224.027344 1058.496094 1224.027344 1057.253906 1221.902344 C 1053.761719 1216.414062 1049.925781 1211.71875 1044.289062 1208.34375 C 1036.09375 1204.179688 1028.898438 1203.671875 1019.832031 1204.042969 C 1015.308594 1204.410156 1011.507812 1205.886719 1007.507812 1207.945312 L 1005.039062 1209.210938 C 999.039062 1212.5625 994.050781 1216.347656 990.285156 1222.15625 C 985.484375 1230.964844 983.679688 1240.535156 983.757812 1250.519531 C 984.585938 1273.636719 993.933594 1297.703125 1005.695312 1317.367188 C 1011.722656 1326.679688 1018.023438 1335.089844 1027.941406 1340.371094 C 1034.214844 1343.300781 1039.625 1344.585938 1046.566406 1344.226562 C 1057.867188 1342.976562 1066.734375 1338.339844 1075.9375 1331.964844 C 1080.46875 1327.433594 1083.605469 1321.957031 1085.863281 1315.964844 C 1087.144531 1311.183594 1087.175781 1306.40625 1087.207031 1301.484375 L 1087.222656 1299.183594 C 1087.148438 1292.9375 1086.199219 1286.945312 1085.046875 1280.816406 C 1098.273438 1274.15625 1111.503906 1267.527344 1124.890625 1261.199219 C 1129.464844 1259.027344 1134.011719 1256.804688 1138.527344 1254.507812 L 1141.40625 1253.046875 C 1143.230469 1252.113281 1145.050781 1251.175781 1146.867188 1250.230469 L 1149.324219 1248.980469 L 1151.488281 1247.859375 L 1153.246094 1247.183594 L 1155.113281 1248.117188 C 1155.738281 1250.078125 1155.738281 1250.078125 1156.285156 1252.648438 C 1156.484375 1253.578125 1156.6875 1254.511719 1156.894531 1255.472656 L 1157.507812 1258.453125 L 1158.132812 1261.355469 C 1162.71875 1283.011719 1162.203125 1305.507812 1155.464844 1326.652344 C 1148.535156 1346.957031 1135.84375 1364.113281 1119.859375 1378.3125 C 1109.375 1387.027344 1097.464844 1393.914062 1085.046875 1399.460938 L 1083.308594 1400.242188 C 1076.5 1403.242188 1069.597656 1405.613281 1062.449219 1407.636719 L 1060.46875 1408.199219 C 1042.742188 1412.984375 1022.449219 1414.0625 1004.5625 1409.519531 C 984.253906 1403.839844 967.382812 1393.507812 952.636719 1378.554688 C 944.417969 1369.945312 937.726562 1360.277344 931.835938 1349.949219 L 930.816406 1348.183594 C 921.613281 1332.066406 915.246094 1314.816406 911.28125 1296.699219 L 910.816406 1294.621094 C 906.117188 1272.703125 906.875 1248.863281 913.382812 1227.390625 C 919.332031 1209.136719 928.171875 1193.125 941.175781 1178.984375 L 943.414062 1176.515625 C 960.933594 1158.066406 985.144531 1146.640625 1009.207031 1139.386719 C 1014.488281 1137.898438 1019.84375 1136.886719 1025.257812 1136.011719 L 1027.433594 1135.640625 C 1047.109375 1132.855469 1067.117188 1136.453125 1084.78125 1145.375 M 493.214844 1137.527344 L 495.078125 1137.53125 C 505.605469 1137.578125 515.375 1138.515625 525.445312 1141.617188 L 527.558594 1142.253906 C 545.539062 1147.867188 563.085938 1156.871094 577.761719 1168.707031 L 579.4375 1170.050781 C 594.738281 1182.464844 606.957031 1197.0625 614.425781 1215.441406 C 622.429688 1236.441406 623.425781 1258.0625 620.113281 1280.179688 C 619.257812 1285.253906 617.792969 1289.988281 616.066406 1294.828125 C 609.949219 1292.925781 604.136719 1290.585938 598.296875 1287.960938 L 595.640625 1286.777344 C 592.851562 1285.53125 590.066406 1284.285156 587.28125 1283.035156 L 581.792969 1280.585938 C 570.164062 1275.390625 558.542969 1270.171875 546.933594 1264.933594 L 547.398438 1261.835938 C 548.9375 1251.277344 549.484375 1241.796875 545.882812 1231.535156 C 543.160156 1225.097656 539.875 1220.046875 534.554688 1215.484375 C 528.078125 1210.648438 520.984375 1206.953125 512.988281 1205.519531 C 506.925781 1204.90625 501.292969 1204.835938 495.550781 1207.011719 C 485.1875 1211.695312 478.132812 1218.011719 471.523438 1227.199219 C 458.65625 1246.058594 448.972656 1269.296875 446.035156 1292.027344 C 445.40625 1302.558594 445.421875 1312.5625 449.867188 1322.308594 C 453.394531 1329.105469 457.515625 1334.128906 463.902344 1338.386719 C 472.28125 1343.414062 480.046875 1346.828125 489.917969 1347.203125 C 496.238281 1347.074219 500.699219 1345.710938 506.175781 1342.535156 C 508.371094 1341.171875 510.246094 1339.929688 512.054688 1338.09375 L 513.300781 1336.871094 L 515.167969 1336.871094 L 515.875 1335.324219 C 517.277344 1332.679688 518.949219 1330.355469 520.714844 1327.9375 L 522.667969 1325.246094 C 524.089844 1323.402344 525.640625 1321.671875 527.316406 1320.054688 L 546.558594 1328.605469 C 558.367188 1333.855469 570.171875 1339.101562 581.980469 1344.339844 L 588.222656 1347.113281 L 590.097656 1347.945312 C 594.367188 1349.84375 594.367188 1349.84375 596.445312 1350.882812 C 592.480469 1361.40625 585.726562 1370.269531 578.695312 1378.910156 L 576.800781 1381.25 C 565.761719 1394.253906 550.742188 1403.945312 534.789062 1409.738281 C 517.835938 1415.253906 499.167969 1416.605469 481.550781 1413.3125 C 478.082031 1412.550781 474.671875 1411.652344 471.261719 1410.671875 L 467.820312 1409.746094 C 446.8125 1403.441406 428.03125 1392.152344 411.46875 1377.976562 L 409.617188 1376.46875 C 405.382812 1372.992188 401.863281 1369.121094 398.390625 1364.894531 L 396.265625 1362.40625 C 383.160156 1346.382812 374.980469 1327.242188 371.414062 1306.914062 C 367.285156 1279.667969 371.675781 1251.382812 381.453125 1225.773438 C 391.671875 1200.125 406.140625 1176.875 427.890625 1159.40625 C 442.042969 1148.617188 459.289062 1141.222656 476.824219 1138.234375 C 482.277344 1137.554688 487.726562 1137.519531 493.214844 1137.527344 M 1320.472656 856.675781 C 1328.035156 858.574219 1334.480469 862.515625 1340.089844 867.886719 C 1345.328125 873.5625 1348.972656 879.585938 1351.007812 887.046875 C 1353.132812 896.648438 1352.300781 905.199219 1349.433594 914.597656 C 1346.027344 922.289062 1341.214844 929.105469 1334.484375 934.21875 C 1327.480469 938.160156 1320.898438 940.847656 1312.824219 940.992188 C 1305.597656 940.894531 1299.644531 939.007812 1293.320312 935.5625 C 1286.988281 931.507812 1282.179688 926.4375 1278.5625 919.835938 C 1273.882812 909.90625 1272.90625 901.199219 1273.761719 890.308594 C 1275.246094 882.296875 1278.925781 876.011719 1284.035156 869.757812 L 1285.519531 867.921875 C 1294.609375 857.789062 1307.507812 855.335938 1320.472656 856.675781 M 1293.378906 868.824219 C 1287.472656 873.4375 1284.050781 878.746094 1281.234375 885.636719 C 1278.828125 891.714844 1278.777344 897.878906 1279.367188 904.324219 C 1280.726562 910.703125 1282.949219 916.273438 1287.125 921.316406 C 1292.394531 926.941406 1297.9375 931.507812 1305.390625 933.824219 C 1311.121094 934.953125 1317.007812 934.9375 1322.628906 933.339844 C 1327.9375 931.222656 1332.398438 929.019531 1336.355469 924.875 C 1338.464844 922.195312 1340.257812 919.425781 1341.957031 916.46875 L 1343.140625 914.4375 C 1346.265625 908.058594 1346.398438 901.410156 1346.105469 894.433594 C 1345.664062 888.703125 1344.078125 883.976562 1341.023438 879.097656 C 1336.699219 873.25 1331.808594 868.179688 1325.144531 865.085938 C 1314.195312 860.75 1302.921875 862.167969 1293.378906 868.824219 "/><path style=" stroke:none;fill-rule:nonzero;fill:#009434;fill-opacity:1;" d="M 1304.589844 873.492188 C 1307.476562 873.332031 1310.191406 873.75 1312.996094 874.429688 C 1316.070312 876.230469 1317.4375 877.804688 1319.363281 880.792969 C 1320.636719 884.214844 1320.734375 886.679688 1320.472656 890.308594 C 1320.175781 891.871094 1319.863281 893.425781 1319.539062 894.980469 L 1321.394531 894.964844 C 1324.164062 894.949219 1326.929688 894.933594 1329.695312 894.921875 L 1332.621094 894.898438 L 1335.410156 894.890625 L 1337.992188 894.875 C 1340.089844 894.980469 1340.089844 894.980469 1341.957031 895.914062 L 1339.15625 901.519531 L 1336.984375 901.34375 C 1333.742188 901.101562 1330.492188 900.902344 1327.246094 900.703125 L 1323.828125 900.425781 C 1320.746094 900.253906 1317.921875 900.144531 1314.867188 900.585938 C 1313.199219 901.738281 1313.199219 901.738281 1312.222656 903.382812 L 1311.128906 906.191406 C 1312.367188 909.03125 1313.585938 910.667969 1316.042969 912.542969 L 1317.8125 913.910156 L 1319.65625 915.300781 L 1321.519531 916.734375 C 1323.035156 917.894531 1324.554688 919.054688 1326.078125 920.203125 L 1323.273438 924.875 C 1320.703125 923.664062 1318.480469 922.324219 1316.222656 920.59375 L 1314.320312 919.140625 L 1312.296875 917.578125 L 1310.199219 915.960938 C 1305.207031 912.101562 1300.265625 908.183594 1295.363281 904.207031 L 1293.464844 902.667969 C 1290.824219 900.507812 1288.289062 898.359375 1285.90625 895.914062 C 1287.671875 893.359375 1289.441406 890.8125 1291.21875 888.265625 L 1292.722656 886.089844 C 1296.164062 881.164062 1299.53125 876.867188 1304.589844 873.492188 M 1304.589844 880.03125 C 1302.199219 881.84375 1302.199219 881.84375 1300.210938 884.355469 L 1298.097656 886.785156 C 1295.800781 889.734375 1295.800781 889.734375 1293.378906 894.980469 L 1305.523438 904.324219 C 1309.574219 900.273438 1312.394531 896.394531 1314.867188 891.242188 C 1315.726562 887.773438 1315.726562 887.773438 1314.867188 884.703125 C 1313.015625 881.84375 1313.015625 881.84375 1310.195312 880.03125 C 1307.464844 879.511719 1307.464844 879.511719 1304.589844 880.03125 "/></g></svg>